<svg xmlns="http://www.w3.org/2000/svg" viewBox="0 0 300 300" xmlns:v="https://vecta.io/nano"><path fill="transparent" d="M0 0h300v300H0z"/><path d="M95.03 158.546h-4.48l-2.113-4.495h-1.744v4.495h-4.126V143.87h6.575q2.835 0 4.06 1.224h0q1.224 1.24 1.224 4.076h0q0 1.577-.453 2.617h0q-.47 1.057-1.41 1.6h0l2.466 5.15zm-8.337-11.272v3.757h2.315q.604 0 .84-.218h0q.235-.2.235-.772h0v-1.778q0-.57-.235-.788h0q-.235-.2-.84-.2h0-2.315zm15.6-.805h0q2.7 0 3.925.94h0q1.224.923 1.224 2.986h0v8.152h-2.046l-1.04-1.174q-1.778 1.493-4.042 1.493h0q-2.08 0-3.036-.923h0q-.956-.923-.956-2.952h0q0-1.493.587-2.315h0q.57-.822 1.93-1.174h0q1.36-.352 3.858-.352h.604v-1.476q-.486-.15-1.46-.15h0q-2.113 0-4.48.62h0l-.486-2.902q2.432-.772 5.418-.772h0zm-.654 9.56h0q.956 0 1.308-.218h0q.352-.2.352-.788h0v-1.71h-1.476q-.956 0-1.325.218h0q-.37.218-.37.84h0v1.66h1.5zm22.78-9.56h0q1.644 0 2.55.67h0q.923.67.923 1.862h0v9.544h-4.126v-8.672h-1.5q-.654 0-.923.185h0q-.252.2-.252.637h0v7.85h-4.126v-8.672h-1.5q-.654 0-.923.185h0q-.252.2-.252.637h0v7.85h-4.126v-11.742h2.03l1.057 1.174q1.98-1.5 4.378-1.5h0q1.057 0 1.828.285h0q.772.285 1.174.822h0q1.778-1.107 3.808-1.107h0zm5.955 12.077h0zm.2-11.255l4.126-.537v11.792h-4.126V147.29zm2.03-1.728h0q-.89 0-1.36-.2h0q-.47-.185-.67-.654h0q-.2-.47-.2-1.36h0q0-1.292.47-1.778h0q.47-.47 1.76-.47h0q1.292 0 1.76.47h0q.47.486.47 1.778h0q0 1.292-.47 1.744h0q-.47.47-1.76.47h0zm9.51 12.983l.923-14.677h5.267l2.147 8.303h.168l2.18-8.303h5.267l.923 14.677h-4.1l-.47-8.202h-.168l-2.097 8.202h-3.187l-2.113-8.202h-.15l-.47 8.202h-4.1zm30.377-11.742v11.742h-2.046l-1.04-1.174q-1.996 1.493-4.663 1.493h0q-1.795 0-2.617-.755h0q-.822-.772-.822-2.432h0v-8.873h4.143v9.226h1.728q.654 0 .923-.185h0q.252-.185.252-.637h0v-8.404h4.143zm2.264 3.49h0q0-1.996 1.224-2.92h0q1.224-.923 3.824-.923h0q2.516 0 4.797.52h0l-.486 2.852q-1.14-.302-2.784-.302h0q-1.24 0-2.13.218h0v1.308q2.332.268 3.606.704h0q1.275.453 1.828 1.208h0q.554.772.554 2.013h0q0 2.063-1.36 3.002h0q-1.342.923-4.328.923h0q-1.292 0-2.583-.2h0q-1.292-.2-2.348-.57h0l.537-3.02q1.744.704 3.79.704h0q.72 0 1.845-.2h0v-1.36q-2.483-.285-3.74-.704h0q-1.258-.403-1.744-1.14h0q-.503-.738-.503-2.113h0zm18.904-.788h-1.728v6.072q.755.117 1.46.15h0l-.2 2.784q-1.56.352-2.667.352h0q-1.392 0-2.063-.57h0q-.67-.57-.67-1.795h0v-6.995h-1.292v-2.7h1.292v-2.03l4.143-1.023v3.053h1.728v2.7zm7.43-3.036h0q2.7 0 3.925.94h0q1.208.923 1.208 2.986h0v8.152h-2.03l-1.04-1.174q-1.778 1.493-4.042 1.493h0q-2.08 0-3.036-.923h0q-.956-.923-.956-2.952h0q0-1.493.57-2.315h0q.587-.822 1.946-1.174h0q1.36-.352 3.858-.352h.604v-1.476q-.486-.15-1.46-.15h0q-2.113 0-4.48.62h0l-.503-2.902q2.45-.772 5.435-.772h0zm-.654 9.56h0q.956 0 1.308-.218h0q.352-.2.352-.788h0v-1.71h-1.476q-.973 0-1.325.218h0q-.37.218-.37.84h0v1.66h1.5zm13.687-2.483h-1.057v5h-4.143v-15.264l4.143-.352v8.102h1.006l1.88-4.227h4.36l-2.784 5.57 2.902 6.173h-4.31l-1.996-5zm11.943 2.03h0q.62.1 1.14.15h0l-.2 2.784q-1.292.352-2.348.352h0q-1.375 0-2.046-.57h0q-.67-.57-.67-1.795h0v-13.218l4.126-.352v12.647zm8.69.235h0q1.996 0 4.16-.604h0l.52 2.885q-2.332.772-5.116.772h0q-3.103 0-4.462-1.443h0q-1.36-1.443-1.36-4.747h0q0-3.288 1.392-4.747h0q1.392-1.46 4.512-1.46h0q2.097 0 3.237.352h0q1.14.352 1.627 1.174h0q.47.822.47 2.348h0q0 1.5-.604 2.332h0q-.62.822-2.063 1.174h0q-1.46.352-4.143.352h0v1.476q.654.134 1.828.134h0zm-.134-6.3h0q-.956 0-1.325.218h0q-.37.2-.37.788h0v1.5h1.392q.956 0 1.325-.218h0q.37-.235.37-.84h0v-1.46h-1.392zm21.906-3.053h0q1.644 0 2.566.67h0q.906.67.906 1.862h0v9.544h-4.126v-8.672h-1.5q-.654 0-.906.185h0q-.268.2-.268.637h0v7.85h-4.126v-8.672h-1.5q-.654 0-.906.185h0q-.268.2-.268.637h0v7.85h-4.126v-11.742h2.046l1.057 1.174q1.963-1.5 4.36-1.5h0q1.057 0 1.828.285h0q.788.285 1.174.822h0q1.795-1.107 3.808-1.107h0z"/><defs><linearGradient id="A" x1="NaN" y1="NaN" x2="NaN" y2="NaN"><stop offset="0%" stop-color="#122663"/><stop offset="100%" stop-color="#5dd7ad"/></linearGradient></defs><path d="M70.112 18.125l-1.167-.544 1.86-3.997a1.234 1.234 0 0 0-.593-1.643l-5.264-2.453a1.253 1.253 0 0 0-.945-.043 1.25 1.25 0 0 0-.698.643l-1.86 3.997-1.168-.544a1.234 1.234 0 0 0-1.643.593l-5.752 12.332-21.508 46.121c-.006.019-.012.043-.025.062l-.037.111a2.292 2.292 0 0 0-.043.216c0 .006-.006.012 0 .025l-1.606 16.267c-.056.525.228 1.02.704 1.242.167.08.346.118.525.118.321 0 .643-.13.884-.371l11.356-11.615c.025-.025.056-.049.081-.08.056-.056.105-.124.154-.185.031-.049.062-.105.086-.161l.025-.056 21.476-46.053 5.752-12.338c.142-.297.154-.636.043-.945a1.228 1.228 0 0 0-.637-.699zm-5.091-5.875l3.021 1.409-.889 1.915-3.021-1.409.889-1.915zM32.468 86.012l1.087-11.047 6.673 3.114-7.76 7.933zM62.71 31.063L41.735 76.047l-7.593-3.534L55.123 27.51l5.227-11.207 7.593 3.54-5.233 11.22zM24.401 61.299c-.25 0-.503-.076-.721-.233L5.513 47.978a1.237 1.237 0 0 1 0-2.005L23.68 32.885a1.236 1.236 0 0 1 1.444 2.005L8.35 46.975 25.125 59.06a1.236 1.236 0 0 1-.724 2.239zM75.598 61.299a1.235 1.235 0 0 1-.723-2.238L91.65 46.975 74.875 34.89a1.236 1.236 0 0 1 1.444-2.005l18.167 13.088a1.234 1.234 0 0 1 .001 2.004L76.319 61.065a1.226 1.226 0 0 1-.721.234z" fill="url(#A)" transform="matrix(.328536 0 0 .328536 38.357098 133.573117)"/></svg>
