<svg data-v-fde0c5aa="" xmlns="http://www.w3.org/2000/svg" viewBox="0 0 300 300" class="iconLeft"><!----><defs data-v-fde0c5aa=""><!----></defs><rect data-v-fde0c5aa="" fill="transparent" x="0" y="0" width="300px" height="300px" class="logo-background-square"></rect><defs data-v-fde0c5aa=""><!----></defs><g data-v-fde0c5aa="" id="75ec4351-3863-42ba-8f37-efe704e6199b" fill="#000000" transform="matrix(1.6773672710002916,0,0,1.6773672710002916,81.1590907602315,129.72901726580605)"><path d="M8.27 17.18L5.60 17.18L4.34 14.50L3.30 14.50L3.30 17.18L0.84 17.18L0.84 8.43L4.76 8.43L4.76 8.43Q6.45 8.43 7.18 9.16L7.18 9.16L7.18 9.16Q7.91 9.90 7.91 11.59L7.91 11.59L7.91 11.59Q7.91 12.53 7.64 13.15L7.64 13.15L7.64 13.15Q7.36 13.78 6.80 14.11L6.80 14.11L8.27 17.18ZM3.30 10.46L3.30 12.70L4.68 12.70L4.68 12.70Q5.04 12.70 5.18 12.57L5.18 12.57L5.18 12.57Q5.32 12.45 5.32 12.11L5.32 12.11L5.32 11.05L5.32 11.05Q5.32 10.71 5.18 10.58L5.18 10.58L5.18 10.58Q5.04 10.46 4.68 10.46L4.68 10.46L3.30 10.46ZM12.60 9.98L12.60 9.98Q14.21 9.98 14.94 10.54L14.94 10.54L14.94 10.54Q15.67 11.09 15.67 12.32L15.67 12.32L15.67 17.18L14.45 17.18L13.83 16.48L13.83 16.48Q12.77 17.37 11.42 17.37L11.42 17.37L11.42 17.37Q10.18 17.37 9.61 16.82L9.61 16.82L9.61 16.82Q9.04 16.27 9.04 15.06L9.04 15.06L9.04 15.06Q9.04 14.17 9.39 13.68L9.39 13.68L9.39 13.68Q9.73 13.19 10.54 12.98L10.54 12.98L10.54 12.98Q11.35 12.77 12.84 12.77L12.84 12.77L13.20 12.77L13.20 11.89L13.20 11.89Q12.91 11.80 12.33 11.80L12.33 11.80L12.33 11.80Q11.07 11.80 9.66 12.17L9.66 12.17L9.37 10.44L9.37 10.44Q10.82 9.98 12.60 9.98L12.60 9.98ZM12.21 15.68L12.21 15.68Q12.78 15.68 12.99 15.55L12.99 15.55L12.99 15.55Q13.20 15.43 13.20 15.08L13.20 15.08L13.20 14.06L12.32 14.06L12.32 14.06Q11.75 14.06 11.53 14.19L11.53 14.19L11.53 14.19Q11.31 14.32 11.31 14.69L11.31 14.69L11.31 15.68L12.21 15.68ZM25.79 9.98L25.79 9.98Q26.77 9.98 27.31 10.38L27.31 10.38L27.31 10.38Q27.86 10.78 27.86 11.49L27.86 11.49L27.86 17.18L25.40 17.18L25.40 12.01L24.50 12.01L24.50 12.01Q24.11 12.01 23.95 12.12L23.95 12.12L23.95 12.12Q23.80 12.24 23.80 12.50L23.80 12.50L23.80 17.18L21.34 17.18L21.34 12.01L20.44 12.01L20.44 12.01Q20.05 12.01 19.89 12.12L19.89 12.12L19.89 12.12Q19.74 12.24 19.74 12.50L19.74 12.50L19.74 17.18L17.28 17.18L17.28 10.18L18.49 10.18L19.12 10.88L19.12 10.88Q20.30 9.98 21.73 9.98L21.73 9.98L21.73 9.98Q22.36 9.98 22.82 10.15L22.82 10.15L22.82 10.15Q23.28 10.32 23.52 10.64L23.52 10.64L23.52 10.64Q24.58 9.98 25.79 9.98L25.79 9.98ZM29.34 17.18L29.34 17.18ZM29.46 10.47L31.92 10.15L31.92 17.18L29.46 17.18L29.46 10.47ZM30.67 9.44L30.67 9.44Q30.14 9.44 29.86 9.32L29.86 9.32L29.86 9.32Q29.58 9.21 29.46 8.93L29.46 8.93L29.46 8.93Q29.34 8.65 29.34 8.12L29.34 8.12L29.34 8.12Q29.34 7.35 29.62 7.06L29.62 7.06L29.62 7.06Q29.90 6.78 30.67 6.78L30.67 6.78L30.67 6.78Q31.44 6.78 31.72 7.06L31.72 7.06L31.72 7.06Q32.00 7.35 32.00 8.12L32.00 8.12L32.00 8.12Q32.00 8.89 31.72 9.16L31.72 9.16L31.72 9.16Q31.44 9.44 30.67 9.44L30.67 9.44ZM36.34 17.18L36.89 8.43L40.03 8.43L41.31 13.38L41.41 13.38L42.71 8.43L45.85 8.43L46.40 17.18L43.95 17.18L43.67 12.29L43.57 12.29L42.32 17.18L40.42 17.18L39.16 12.29L39.07 12.29L38.79 17.18L36.34 17.18ZM54.45 10.18L54.45 17.18L53.23 17.18L52.61 16.48L52.61 16.48Q51.42 17.37 49.83 17.37L49.83 17.37L49.83 17.37Q48.76 17.37 48.27 16.92L48.27 16.92L48.27 16.92Q47.78 16.46 47.78 15.47L47.78 15.47L47.78 10.18L50.25 10.18L50.25 15.68L51.28 15.68L51.28 15.68Q51.67 15.68 51.83 15.57L51.83 15.57L51.83 15.57Q51.98 15.46 51.98 15.19L51.98 15.19L51.98 10.18L54.45 10.18ZM55.80 12.26L55.80 12.26Q55.80 11.07 56.53 10.52L56.53 10.52L56.53 10.52Q57.26 9.97 58.81 9.97L58.81 9.97L58.81 9.97Q60.31 9.97 61.67 10.28L61.67 10.28L61.38 11.98L61.38 11.98Q60.70 11.80 59.72 11.80L59.72 11.80L59.72 11.80Q58.98 11.80 58.45 11.93L58.45 11.93L58.45 12.71L58.45 12.71Q59.84 12.87 60.60 13.13L60.60 13.13L60.60 13.13Q61.36 13.40 61.69 13.85L61.69 13.85L61.69 13.85Q62.02 14.31 62.02 15.05L62.02 15.05L62.02 15.05Q62.02 16.28 61.21 16.84L61.21 16.84L61.21 16.84Q60.41 17.39 58.63 17.39L58.63 17.39L58.63 17.39Q57.86 17.39 57.09 17.27L57.09 17.27L57.09 17.27Q56.32 17.15 55.69 16.93L55.69 16.93L56.01 15.13L56.01 15.13Q57.05 15.55 58.27 15.55L58.27 15.55L58.27 15.55Q58.70 15.55 59.37 15.43L59.37 15.43L59.37 14.62L59.37 14.62Q57.89 14.45 57.14 14.20L57.14 14.20L57.14 14.20Q56.39 13.96 56.10 13.52L56.10 13.52L56.10 13.52Q55.80 13.08 55.80 12.26L55.80 12.26ZM67.07 11.79L66.04 11.79L66.04 15.41L66.04 15.41Q66.49 15.48 66.91 15.50L66.91 15.50L66.79 17.16L66.79 17.16Q65.86 17.37 65.20 17.37L65.20 17.37L65.20 17.37Q64.37 17.37 63.97 17.03L63.97 17.03L63.97 17.03Q63.57 16.69 63.57 15.96L63.57 15.96L63.57 11.79L62.80 11.79L62.80 10.18L63.57 10.18L63.57 8.97L66.04 8.36L66.04 10.18L67.07 10.18L67.07 11.79ZM71.50 9.98L71.50 9.98Q73.11 9.98 73.84 10.54L73.84 10.54L73.84 10.54Q74.56 11.09 74.56 12.32L74.56 12.32L74.56 17.18L73.35 17.18L72.73 16.48L72.73 16.48Q71.67 17.37 70.32 17.37L70.32 17.37L70.32 17.37Q69.08 17.37 68.51 16.82L68.51 16.82L68.51 16.82Q67.94 16.27 67.94 15.06L67.94 15.06L67.94 15.06Q67.94 14.17 68.28 13.68L68.28 13.68L68.28 13.68Q68.63 13.19 69.44 12.98L69.44 12.98L69.44 12.98Q70.25 12.77 71.74 12.77L71.74 12.77L72.10 12.77L72.10 11.89L72.10 11.89Q71.81 11.80 71.23 11.80L71.23 11.80L71.23 11.80Q69.97 11.80 68.56 12.17L68.56 12.17L68.26 10.44L68.26 10.44Q69.72 9.98 71.50 9.98L71.50 9.98ZM71.11 15.68L71.11 15.68Q71.68 15.68 71.89 15.55L71.89 15.55L71.89 15.55Q72.10 15.43 72.10 15.08L72.10 15.08L72.10 14.06L71.22 14.06L71.22 14.06Q70.64 14.06 70.43 14.19L70.43 14.19L70.43 14.19Q70.21 14.32 70.21 14.69L70.21 14.69L70.21 15.68L71.11 15.68ZM79.27 14.20L78.64 14.20L78.64 17.18L76.17 17.18L76.17 8.08L78.64 7.87L78.64 12.70L79.24 12.70L80.36 10.18L82.96 10.18L81.30 13.50L83.03 17.18L80.46 17.18L79.27 14.20ZM86.39 15.41L86.39 15.41Q86.76 15.47 87.07 15.50L87.07 15.50L86.95 17.16L86.95 17.16Q86.18 17.37 85.55 17.37L85.55 17.37L85.55 17.37Q84.73 17.37 84.33 17.03L84.33 17.03L84.33 17.03Q83.93 16.69 83.93 15.96L83.93 15.96L83.93 8.08L86.39 7.87L86.39 15.41ZM91.57 15.55L91.57 15.55Q92.76 15.55 94.05 15.19L94.05 15.19L94.36 16.91L94.36 16.91Q92.97 17.37 91.31 17.37L91.31 17.37L91.31 17.37Q89.46 17.37 88.65 16.51L88.65 16.51L88.65 16.51Q87.84 15.65 87.84 13.68L87.84 13.68L87.84 13.68Q87.84 11.72 88.67 10.85L88.67 10.85L88.67 10.85Q89.50 9.98 91.36 9.98L91.36 9.98L91.36 9.98Q92.61 9.98 93.29 10.19L93.29 10.19L93.29 10.19Q93.97 10.40 94.26 10.89L94.26 10.89L94.26 10.89Q94.54 11.38 94.54 12.29L94.54 12.29L94.54 12.29Q94.54 13.19 94.18 13.68L94.18 13.68L94.18 13.68Q93.81 14.17 92.95 14.38L92.95 14.38L92.95 14.38Q92.08 14.59 90.48 14.59L90.48 14.59L90.48 15.47L90.48 15.47Q90.87 15.55 91.57 15.55L91.57 15.55ZM91.49 11.80L91.49 11.80Q90.92 11.80 90.70 11.93L90.70 11.93L90.70 11.93Q90.48 12.05 90.48 12.40L90.48 12.40L90.48 13.30L91.31 13.30L91.31 13.30Q91.88 13.30 92.10 13.17L92.10 13.17L92.10 13.17Q92.32 13.03 92.32 12.67L92.32 12.67L92.32 11.80L91.49 11.80ZM104.55 9.98L104.55 9.98Q105.53 9.98 106.08 10.38L106.08 10.38L106.08 10.38Q106.62 10.78 106.62 11.49L106.62 11.49L106.62 17.18L104.16 17.18L104.16 12.01L103.26 12.01L103.26 12.01Q102.87 12.01 102.72 12.12L102.72 12.12L102.72 12.12Q102.56 12.24 102.56 12.50L102.56 12.50L102.56 17.18L100.10 17.18L100.10 12.01L99.20 12.01L99.20 12.01Q98.81 12.01 98.66 12.12L98.66 12.12L98.66 12.12Q98.50 12.24 98.50 12.50L98.50 12.50L98.50 17.18L96.04 17.18L96.04 10.18L97.26 10.18L97.89 10.88L97.89 10.88Q99.06 9.98 100.49 9.98L100.49 9.98L100.49 9.98Q101.12 9.98 101.58 10.15L101.58 10.15L101.58 10.15Q102.05 10.32 102.28 10.64L102.28 10.64L102.28 10.64Q103.35 9.98 104.55 9.98L104.55 9.98Z"></path></g><defs data-v-fde0c5aa=""><linearGradient data-v-fde0c5aa="" gradientTransform="rotate(25)" id="cfab7045-7fd2-4bc8-b226-44d6cd914fcb" x1="0%" y1="0%" x2="100%" y2="0%"><stop data-v-fde0c5aa="" offset="0%" stop-color="#122663" stop-opacity="1"></stop><stop data-v-fde0c5aa="" offset="100%" stop-color="#5DD7AD" stop-opacity="1"></stop></linearGradient></defs><g data-v-fde0c5aa="" id="92c10de8-1986-4478-9d93-e41b132d78e0" stroke="none" fill="url(#cfab7045-7fd2-4bc8-b226-44d6cd914fcb)" transform="matrix(0.3285357186267237,0,0,0.3285357186267237,38.35709785584553,133.57311725399606)"><path d="M70.112 18.125l-1.167-.544 1.86-3.997a1.234 1.234 0 0 0-.593-1.643l-5.264-2.453a1.253 1.253 0 0 0-.945-.043 1.25 1.25 0 0 0-.698.643l-1.86 3.997-1.168-.544a1.234 1.234 0 0 0-1.643.593l-5.752 12.332-21.508 46.121c-.006.019-.012.043-.025.062l-.037.111a2.292 2.292 0 0 0-.043.216c0 .006-.006.012 0 .025l-1.606 16.267c-.056.525.228 1.02.704 1.242.167.08.346.118.525.118.321 0 .643-.13.884-.371l11.356-11.615c.025-.025.056-.049.081-.08.056-.056.105-.124.154-.185.031-.049.062-.105.086-.161l.025-.056 21.476-46.053 5.752-12.338c.142-.297.154-.636.043-.945a1.228 1.228 0 0 0-.637-.699zm-5.091-5.875l3.021 1.409-.889 1.915-3.021-1.409.889-1.915zM32.468 86.012l1.087-11.047 6.673 3.114-7.76 7.933zM62.71 31.063L41.735 76.047l-7.593-3.534L55.123 27.51l5.227-11.207 7.593 3.54-5.233 11.22zM24.401 61.299c-.25 0-.503-.076-.721-.233L5.513 47.978a1.237 1.237 0 0 1 0-2.005L23.68 32.885a1.236 1.236 0 0 1 1.444 2.005L8.35 46.975 25.125 59.06a1.236 1.236 0 0 1-.724 2.239zM75.598 61.299a1.235 1.235 0 0 1-.723-2.238L91.65 46.975 74.875 34.89a1.236 1.236 0 0 1 1.444-2.005l18.167 13.088a1.234 1.234 0 0 1 .001 2.004L76.319 61.065a1.226 1.226 0 0 1-.721.234z"></path></g><!----></svg>